<?xml version="1.0" encoding="UTF-8"?>
<svg width="70px" height="50px" viewBox="0 0 70 50" version="1.1" xmlns="http://www.w3.org/2000/svg" xmlns:xlink="http://www.w3.org/1999/xlink">
    <!-- Generator: Sketch 53.2 (72643) - https://sketchapp.com -->
    <title>amex</title>
    <desc>Created with Sketch.</desc>
    <g id="Page-1" stroke="none" stroke-width="1" fill="none" fill-rule="evenodd">
        <g id="CREDIT-CARDS" transform="translate(-197.000000, -107.000000)">
            <g id="70x50" transform="translate(28.000000, 107.000000)">
                <g id="amex" transform="translate(169.000000, 0.000000)">
                    <rect id="amex-bg" fill="#007ECD" x="0" y="0" width="70" height="50" rx="6.63157895"></rect>
                    <path d="M61.4906275,33.9775501 L58.4175921,33.9775501 L58.4175921,32.4299526 L61.0996087,32.4299526 C61.0996087,32.4299526 62.0775281,32.5436506 62.0775281,31.8976717 C62.0775281,31.2922475 60.6154902,31.33932 60.6154902,31.33932 C60.6154902,31.33932 58.2328823,31.5442662 58.2328823,29.3376543 C58.2328823,27.1426295 60.3853477,27.2679147 60.3853477,27.2679147 L63.69076,27.2679147 L63.69076,28.8372379 L61.0303425,28.8372379 C61.0303425,28.8372379 60.1090277,28.6540175 60.1090277,29.3159286 C60.1090277,29.8706594 61.3640119,29.7917225 61.3640119,29.7917225 C61.3640119,29.7917225 63.999851,29.5990875 63.999851,31.6232031 C63.999851,33.7928812 62.3017122,33.9862404 61.6991709,33.9862404 C61.5695761,33.9862404 61.4906275,33.9775501 61.4906275,33.9775501 L61.4906275,33.9775501 Z M46.1589664,33.9884129 L46.1589664,27.2795018 L51.5445988,27.2795018 L51.5445988,28.8372379 L47.8958347,28.8372379 L47.8958347,29.8706594 L51.4537334,29.8706594 L51.4537334,31.3958069 L47.8958347,31.3958069 L47.8958347,32.5342362 L51.5445988,32.5342362 L51.5445988,33.9884129 L46.1589664,33.9884129 Z M55.4019062,33.9775501 L52.328126,33.9775501 L52.328126,32.4299526 L55.0220593,32.4299526 C55.0220593,32.4299526 55.9888068,32.5436506 55.9888068,31.8976717 C55.9888068,31.2922475 54.5267688,31.33932 54.5267688,31.33932 C54.5267688,31.33932 52.1441609,31.5442662 52.1441609,29.3376543 C52.1441609,27.1426295 54.2966263,27.2679147 54.2966263,27.2679147 L57.6132106,27.2679147 L57.6132106,28.8372379 L54.942366,28.8372379 C54.942366,28.8372379 54.0203064,28.6540175 54.0203064,29.3159286 C54.0203064,29.8706594 55.2738009,29.7917225 55.2738009,29.7917225 C55.2738009,29.7917225 57.9111297,29.5990875 57.9111297,31.6232031 C57.9111297,33.7928812 56.2129909,33.9862404 55.6104495,33.9862404 C55.4801099,33.9862404 55.4019062,33.9775501 55.4019062,33.9775501 L55.4019062,33.9775501 Z M32.1150606,33.9891371 L30.60759,33.9891371 L28.7768772,31.9976102 L26.9357373,33.9891371 L25.8878069,33.9891371 L20.5126017,33.9891371 L20.5126017,27.2570518 L25.8878069,27.2570518 L26.7972049,27.2570518 L28.7768772,29.3948655 L30.7684663,27.2686389 L32.0927167,27.2686389 L32.0927167,27.2570518 L36.2822039,27.2570518 C36.2822039,27.2570518 38.4696748,27.0180686 38.4696748,29.2340949 C38.4696748,31.2133106 37.7427522,31.8281493 35.5113382,31.8281493 L33.8191578,31.8281493 L33.8191578,33.9891371 L32.1150606,33.9891371 L32.1150606,33.9891371 Z M29.9514232,30.6810298 L32.0927167,33.0223413 L32.0927167,28.3484086 L29.9514232,30.6810298 L29.9514232,30.6810298 Z M22.2509596,32.533512 L25.8878069,32.533512 L27.591904,30.6810298 L25.8878069,28.8379621 L22.2509596,28.8379621 L22.2509596,29.8713836 L25.7961967,29.8713836 L25.7961967,31.3965311 L22.2509596,31.3965311 L22.2509596,32.533512 L22.2509596,32.533512 Z M33.8191578,30.0756056 L35.6029483,30.0756056 C36.1213275,30.0756056 36.5473518,29.7917225 36.5473518,29.4390412 C36.5473518,29.0878082 36.1213275,28.8024767 35.6029483,28.8024767 L33.8191578,28.8024767 L33.8191578,30.0756056 L33.8191578,30.0756056 Z M43.6266542,34 L43.6266542,32.6921099 C43.6266542,32.6921099 43.5558984,31.6688272 42.4737073,31.6688272 L40.7949332,31.6688272 L40.7949332,34 L39.0670025,34 L39.0670025,27.2795018 L43.2579793,27.2795018 C43.2579793,27.2795018 45.4447054,27.0180686 45.4447054,29.2464062 C45.4447054,30.4065612 44.477958,30.8157294 44.477958,30.8157294 C44.477958,30.8157294 45.3069178,31.2024478 45.3069178,32.3387044 L45.3069178,34 L43.6266542,34 L43.6266542,34 Z M40.7949332,30.0879169 L42.5787238,30.0879169 C43.097103,30.0879169 43.5223825,29.8040337 43.5223825,29.4513524 C43.5223825,29.0986711 43.097103,28.814788 42.5787238,28.814788 L40.7949332,28.814788 L40.7949332,30.0879169 L40.7949332,30.0879169 Z M39.4937716,24.8005938 L41.2306399,24.8005938 L41.2306399,18.0583698 L39.4937716,18.0583698 L39.4937716,24.8005938 Z M26.1179494,24.7774197 L26.1179494,18.0576457 L31.5050713,18.0576457 L31.5050713,19.6262447 L27.8563072,19.6262447 L27.8563072,20.6611145 L31.4134612,20.6611145 L31.4134612,22.1848137 L27.8563072,22.1848137 L27.8563072,23.3232429 L31.5050713,23.3232429 L31.5050713,24.7774197 L26.1179494,24.7774197 Z M23.412844,24.7781439 L23.412844,20.1382482 L21.2492067,24.7781439 L19.8333462,24.7781439 L17.657792,20.1606981 L17.657792,24.7781439 L16.1495767,24.7781439 L15.9194342,24.7781439 L14.2503425,24.7781439 L13.6515251,23.3681428 L10.4980516,23.3681428 L9.88806222,24.7781439 L8,24.7781439 L10.8659816,18.0569215 L13.294767,18.0569215 L15.9194342,24.2321034 L15.9194342,18.0569215 L18.6476282,18.0569215 L20.5468624,22.2304378 L22.4341798,18.0569215 L25.1623739,18.0569215 L25.1623739,24.7781439 L23.412844,24.7781439 Z M11.2346565,21.6503603 L12.9149202,21.6503603 L12.0747883,19.6494188 L11.2346565,21.6503603 Z M57.3346562,24.7781439 L54.5967798,20.2859833 L54.5967798,24.7781439 L53.1116532,24.7781439 L52.8338436,24.7781439 L51.212419,24.7781439 L50.6024296,23.3681428 L47.4482113,23.3681428 L46.8486491,24.7781439 L45.2599956,24.7781439 L44.9725037,24.7781439 L44.1435438,24.7781439 C44.1435438,24.7781439 41.8197749,24.4479125 41.8197749,21.6054604 C41.8197749,17.8751494 44.455614,18.0228845 44.5464794,18.0004345 L46.6758561,18.0569215 L46.6758561,19.5697578 L44.9278158,19.5922077 C44.9278158,19.5922077 43.7875305,19.5922077 43.6482533,21.0594199 C43.6333574,21.2288808 43.6251646,21.3824094 43.6266542,21.5265235 C43.6333574,23.7983126 45.6219673,23.0936742 45.6875095,23.0719484 L47.8280581,18.0569215 L50.2441819,18.0569215 L52.8338436,24.1524423 L52.8338436,18.0569215 L55.2745457,18.0569215 L57.9796511,22.4810081 L57.9796511,18.0569215 L59.7187537,18.0569215 L59.7187537,24.7781439 L57.3346562,24.7781439 L57.3346562,24.7781439 Z M48.1848162,21.6503603 L49.8658247,21.6503603 L49.0368648,19.6494188 L48.1848162,21.6503603 L48.1848162,21.6503603 Z M36.9607146,24.7781439 L36.9607146,23.4702538 C36.9607146,23.4702538 36.8921932,22.4469711 35.8100021,22.4469711 L34.1297384,22.4469711 L34.1297384,24.7781439 L32.4025525,24.7781439 L32.4025525,18.0569215 L36.5927845,18.0569215 C36.5927845,18.0569215 38.7795106,17.7954883 38.7795106,20.0245501 C38.7795106,21.1847051 37.8127632,21.5938733 37.8127632,21.5938733 C37.8127632,21.5938733 38.652895,21.9805917 38.652895,23.1175725 L38.652895,24.7781439 L36.9607146,24.7781439 Z M34.1297384,20.8660608 L35.913529,20.8660608 C36.4319082,20.8660608 36.8571877,20.5814535 36.8571877,20.2287721 C36.8571877,19.876815 36.4319082,19.5922077 35.913529,19.5922077 L34.1297384,19.5922077 L34.1297384,20.8660608 Z" id="amex-logo" fill="#FFFFFF"></path>
                </g>
            </g>
        </g>
    </g>
</svg>