<?xml version="1.0" encoding="UTF-8"?>
<svg width="70px" height="50px" viewBox="0 0 70 50" version="1.1" xmlns="http://www.w3.org/2000/svg" xmlns:xlink="http://www.w3.org/1999/xlink">
    <!-- Generator: Sketch 53.2 (72643) - https://sketchapp.com -->
    <title>diners-club</title>
    <desc>Created with Sketch.</desc>
    <g id="Page-1" stroke="none" stroke-width="1" fill="none" fill-rule="evenodd">
        <g id="CREDIT-CARDS" transform="translate(-113.000000, -107.000000)">
            <g id="70x50" transform="translate(28.000000, 107.000000)">
                <g id="diners-club" transform="translate(85.000000, 0.000000)">
                    <rect id="dc-bg" fill="#2183CB" x="0" y="0" width="70" height="50" rx="6.63157895"></rect>
                    <path d="M37.2699563,40 L32.1081462,40 C24.302482,39.8739208 18.0075916,33.4438826 18.0075916,25.6269734 C17.7557959,17.8100642 23.7988908,11.2539469 31.4786571,11.0017885 L37.2699563,11.0017885 C45.3274161,10.8757093 51.8741022,17.4318267 52,25.5008943 L52,25.6269734 C51.7482044,33.5699618 45.3274161,40 37.2699563,40 Z M32.4858396,13.5233721 C25.9391535,13.5233721 20.5255477,18.9447769 20.5255477,25.5008943 C20.5255477,32.0570116 25.9391535,37.4784164 32.4858396,37.4784164 C39.0325257,37.4784164 44.4461315,32.0570116 44.4461315,25.5008943 C44.4461315,18.9447769 39.0325257,13.5233721 32.4858396,13.5233721 Z M34.3743067,33.5699618 L34.3743067,17.5579059 C38.78073,18.6926185 41.5504818,23.1053898 40.4174016,27.5181611 C39.6620147,30.5440615 37.3958541,32.8134867 34.3743067,33.5699618 Z M30.5973725,33.5699618 C26.1909491,32.4352492 23.5470952,27.8963987 24.6801754,23.4836274 C25.4355623,20.5838062 27.7017229,18.314381 30.5973725,17.5579059 L30.5973725,33.5699618 Z" id="dc-logo" fill="#FFFFFF"></path>
                </g>
            </g>
        </g>
    </g>
</svg>