<?xml version="1.0" encoding="UTF-8"?>
<svg width="70px" height="50px" viewBox="0 0 70 50" version="1.1" xmlns="http://www.w3.org/2000/svg" xmlns:xlink="http://www.w3.org/1999/xlink">
    <!-- Generator: Sketch 53.2 (72643) - https://sketchapp.com -->
    <title>discover</title>
    <desc>Created with Sketch.</desc>
    <g id="Page-1" stroke="none" stroke-width="1" fill="none" fill-rule="evenodd">
        <g id="CREDIT-CARDS" transform="translate(-281.000000, -107.000000)">
            <g id="70x50" transform="translate(28.000000, 107.000000)">
                <g id="discover" transform="translate(253.000000, 0.000000)">
                    <rect id="discover-bg" fill="#FFA200" x="0" y="0" width="70" height="50" rx="6.71641791"></rect>
                    <path d="M61.1766987,24.7765588 L60.6334206,24.7765588 L60.6334206,21.8753036 L61.1766987,21.8753036 C62.3719104,21.8753036 62.9151885,22.4125731 62.9151885,23.2722043 C62.9151885,24.2392894 62.3719104,24.7765588 61.1766987,24.7765588 L61.1766987,24.7765588 Z M64.8709896,23.1647504 C64.8709896,21.3380341 63.6757778,20.370949 61.5026655,20.370949 L58.7862751,20.370949 L58.7862751,29.9343459 L60.6334206,29.9343459 L60.6334206,26.0660056 L60.8507318,26.0660056 L63.349811,29.9343459 L65.6315789,29.9343459 L62.6978773,25.9585517 C64.0017447,25.7436439 64.9796452,24.5616511 64.8709896,23.1647504 L64.8709896,23.1647504 Z M52.3755937,29.9343459 L57.5910633,29.9343459 L57.5910633,28.3225375 L54.2227392,28.3225375 L54.2227392,25.7436439 L57.4824077,25.7436439 L57.4824077,24.1318355 L54.2227392,24.1318355 L54.2227392,21.9827575 L57.5910633,21.9827575 L57.5910633,20.370949 L52.3755937,20.370949 L52.3755937,29.9343459 L52.3755937,29.9343459 Z M46.9428128,26.8181829 L44.4437336,20.370949 L42.4879325,20.370949 L46.5081904,30.1492537 L47.4860909,30.1492537 L51.5063487,20.370949 L49.5505476,20.370949 L46.9428128,26.8181829 L46.9428128,26.8181829 Z M24.8857226,25.2063744 C24.8857226,27.8927219 27.0588349,30.1492537 29.7752254,30.1492537 C30.6444703,30.1492537 31.4050596,29.9343459 32.1656489,29.6119842 L32.1656489,27.4629063 C31.6223708,28.1076297 30.8617815,28.5374453 29.9925366,28.5374453 C28.2540467,28.5374453 26.8415237,27.2479985 26.8415237,25.5287361 L26.8415237,25.3138283 C26.7328681,23.594566 28.1453911,22.0902114 29.883881,21.9827575 C30.7531259,21.9827575 31.6223708,22.4125731 32.1656489,23.0572965 L32.1656489,20.9082185 C31.5137152,20.4784029 30.6444703,20.370949 29.883881,20.370949 C27.0588349,20.1560412 24.8857226,22.4125731 24.8857226,25.2063744 L24.8857226,25.2063744 Z M21.5173985,24.0243816 C20.4308423,23.594566 20.1048754,23.3796582 20.1048754,22.8423887 C20.2135311,22.1976653 20.7568091,21.6603958 21.4087429,21.7678497 C21.9520209,21.7678497 22.495299,22.0902114 22.9299215,22.520027 L23.907822,21.2305802 C23.1472327,20.5858568 22.1693322,20.1560412 21.1914316,20.1560412 C19.670253,20.0485874 18.3663856,21.2305802 18.25773,22.7349348 L18.25773,22.8423887 C18.25773,24.1318355 18.801008,24.8840127 20.5394979,25.4212822 C20.9741204,25.5287361 21.4087429,25.7436439 21.8433653,25.9585517 C22.1693322,26.1734595 22.3866434,26.4958212 22.3866434,26.9256368 C22.3866434,27.6778141 21.7347097,28.3225375 21.082776,28.3225375 L20.9741204,28.3225375 C20.1048754,28.3225375 19.3442861,27.785268 19.0183193,27.0330907 L17.8231075,28.2150836 C18.4750412,29.3970764 19.7789086,30.0417998 21.082776,30.0417998 C22.8212659,30.1492537 24.2337889,28.859807 24.3424445,27.1405446 L24.3424445,26.8181829 C24.2337889,25.5287361 23.6905108,24.8840127 21.5173985,24.0243816 L21.5173985,24.0243816 Z M15.2153727,29.9343459 L17.0625182,29.9343459 L17.0625182,20.370949 L15.2153727,20.370949 L15.2153727,29.9343459 L15.2153727,29.9343459 Z M11.5210817,27.5703602 C10.869148,28.1076297 9.89124746,28.4299914 9.02200252,28.3225375 L8.47872444,28.3225375 L8.47872444,21.9827575 L9.02200252,21.9827575 C9.89124746,21.8753036 10.869148,22.1976653 11.5210817,22.7349348 C12.1730154,23.3796582 12.4989823,24.2392894 12.4989823,25.0989205 C12.4989823,26.0660056 12.1730154,26.9256368 11.5210817,27.5703602 L11.5210817,27.5703602 Z M9.34796937,20.370949 L6.63157895,20.370949 L6.63157895,29.9343459 L9.34796937,29.9343459 C10.5431812,30.0417998 11.7383929,29.6119842 12.7162935,28.859807 C13.8028497,27.8927219 14.4547834,26.6032751 14.4547834,25.2063744 C14.563439,22.6274809 12.4989823,20.4784029 9.89124746,20.370949 L9.34796937,20.370949 L9.34796937,20.370949 Z M37.7070854,20.1492537 C34.990695,20.1492537 32.708927,22.2983317 32.708927,25.092133 C32.708927,27.7784805 34.8820394,30.0350123 37.7070854,30.1424662 C40.5321314,30.2499201 42.7052438,27.9933883 42.8138994,25.1995869 C42.7052438,22.4057856 40.5321314,20.1492537 37.7070854,20.1492537 L37.7070854,20.1492537 Z" id="discover-logo" fill="#FFFFFF"></path>
                </g>
            </g>
        </g>
    </g>
</svg>