<?xml version="1.0" encoding="UTF-8"?>
<svg width="70px" height="50px" viewBox="0 0 70 50" version="1.1" xmlns="http://www.w3.org/2000/svg" xmlns:xlink="http://www.w3.org/1999/xlink">
    <!-- Generator: Sketch 53.2 (72643) - https://sketchapp.com -->
    <title>mastercard</title>
    <desc>Created with Sketch.</desc>
    <g id="Page-1" stroke="none" stroke-width="1" fill="none" fill-rule="evenodd">
        <g id="CREDIT-CARDS" transform="translate(-365.000000, -107.000000)">
            <g id="70x50" transform="translate(28.000000, 107.000000)">
                <g id="mastercard" transform="translate(337.000000, 0.000000)">
                    <rect id="mastercard-bg" fill="#353A48" x="0" y="0" width="70" height="50" rx="6.63157895"></rect>
                    <g id="mastercard-logo" transform="translate(12.526316, 11.194030)">
                        <path d="M22.8421053,3.55198077 C25.2224622,1.49542191 28.3101835,0.253919708 31.6842105,0.253919708 C39.2127237,0.253919708 45.3157895,6.43506309 45.3157895,14.0598899 C45.3157895,21.6847166 39.2127237,27.86586 31.6842105,27.86586 C28.3101835,27.86586 25.2224622,26.6243578 22.8421053,24.5677989 C20.4617484,26.6243578 17.374027,27.86586 14,27.86586 C6.47148683,27.86586 0.368421053,21.6847166 0.368421053,14.0598899 C0.368421053,6.43506309 6.47148683,0.253919708 14,0.253919708 C17.374027,0.253919708 20.4617484,1.49542191 22.8421053,3.55198077 Z" id="Combined-Shape" fill="#FF5E00"></path>
                        <path d="M22.8421053,3.55198077 C19.9111388,6.0842502 18.0526316,9.8522546 18.0526316,14.0598899 C18.0526316,18.2675251 19.9111388,22.0355295 22.8421053,24.5677989 C20.4617484,26.6243578 17.374027,27.86586 14,27.86586 C6.47148683,27.86586 0.368421053,21.6847166 0.368421053,14.0598899 C0.368421053,6.43506309 6.47148683,0.253919708 14,0.253919708 C17.374027,0.253919708 20.4617484,1.49542191 22.8421053,3.55198077 Z" id="Combined-Shape" fill="#ED0006"></path>
                        <path d="M22.8421053,24.5677989 C25.7730717,22.0355295 27.6315789,18.2675251 27.6315789,14.0598899 C27.6315789,9.8522546 25.7730717,6.0842502 22.8421053,3.55198077 C25.2224622,1.49542191 28.3101835,0.253919708 31.6842105,0.253919708 C39.2127237,0.253919708 45.3157895,6.43506309 45.3157895,14.0598899 C45.3157895,21.6847166 39.2127237,27.86586 31.6842105,27.86586 C28.3101835,27.86586 25.2224622,26.6243578 22.8421053,24.5677989 Z" id="Combined-Shape" fill="#F9A000"></path>
                    </g>
                </g>
            </g>
        </g>
    </g>
</svg>