<?xml version="1.0" encoding="UTF-8"?>
<svg width="70px" height="50px" viewBox="0 0 70 50" version="1.1" xmlns="http://www.w3.org/2000/svg" xmlns:xlink="http://www.w3.org/1999/xlink">
    <!-- Generator: Sketch 53.2 (72643) - https://sketchapp.com -->
    <title>visa</title>
    <desc>Created with Sketch.</desc>
    <g id="Page-1" stroke="none" stroke-width="1" fill="none" fill-rule="evenodd">
        <g id="CREDIT-CARDS" transform="translate(-28.000000, -107.000000)">
            <g id="70x50" transform="translate(28.000000, 107.000000)">
                <g id="visa">
                    <rect id="visa-bg" fill="#224DBA" x="0" y="0" width="70" height="50" rx="6.63157895"></rect>
                    <path d="M23.7504958,32.8831774 L19.6829402,32.8831774 L16.6327693,21.246604 C16.4879953,20.7113216 16.1805983,20.2381009 15.7284274,20.0150666 C14.5999831,19.4545717 13.3565129,19.008503 12,18.7835293 L12,18.3355212 L18.5525128,18.3355212 C19.4568547,18.3355212 20.1351112,19.008503 20.2481539,19.7900929 L21.8307524,28.1839411 L25.8963247,18.3355212 L29.8508376,18.3355212 L23.7504958,32.8831774 Z M32.1116925,32.8831774 L28.2702224,32.8831774 L31.433436,18.3355212 L35.2749061,18.3355212 L32.1116925,32.8831774 Z M40.2448205,22.3656544 C40.3578632,21.5821252 41.0361197,21.1341171 41.8274189,21.1341171 C43.0708891,21.0216302 44.4254188,21.246604 45.5558462,21.8051595 L46.2341027,18.6729818 C45.1036753,18.2249738 43.8602051,18 42.7317608,18 C39.0033335,18 36.2903076,20.0150666 36.2903076,22.8117231 C36.2903076,24.9392766 38.2120343,26.0563876 39.5685472,26.7293695 C41.0361197,27.4004119 41.6013334,27.8484199 41.4882906,28.5194623 C41.4882906,29.5260259 40.3578632,29.974034 39.229419,29.974034 C37.872906,29.974034 36.5163931,29.6385128 35.2749061,29.0780179 L34.5966496,32.212135 C35.9531626,32.7706905 37.4207351,32.9956642 38.777248,32.9956642 C42.9578463,33.1062117 45.5558462,31.0930845 45.5558462,28.0714543 C45.5558462,24.2662948 40.2448205,24.0432604 40.2448205,22.3656544 L40.2448205,22.3656544 Z M59,32.8831774 L55.9498291,18.3355212 L52.6735727,18.3355212 C51.9953163,18.3355212 51.3170598,18.7835293 51.0909743,19.4545717 L45.4428035,32.8831774 L49.3973163,32.8831774 L50.1866323,30.7575633 L55.0454872,30.7575633 L55.4976581,32.8831774 L59,32.8831774 Z M53.2387864,22.2531676 L54.3672307,27.7359331 L51.204017,27.7359331 L53.2387864,22.2531676 Z" id="visa-logo" fill="#FFFFFF"></path>
                </g>
            </g>
        </g>
    </g>
</svg>